<svg width="143" height="52" viewBox="0 0 143 52" fill="none" xmlns="http://www.w3.org/2000/svg">
<g filter="url(#filter0_d_129_214)">
<path d="M36.458 9.00571L106.532 9.00595C105.523 9.91196 104.567 10.8239 103.665 11.7268C99.974 15.4228 97.015 19.1432 94.8469 22.0635C93.8679 23.382 93.0356 24.5578 92.3911 25.4682C92.3231 25.5642 92.2572 25.6572 92.1935 25.7472C91.578 26.616 91.3053 26.9833 91.2203 27.0979C91.1944 27.1328 91.1859 27.1442 91.1904 27.1393C88.6439 29.9404 86.6263 32.09 83.8498 33.7096C81.2157 35.2462 77.4989 36.5116 71.5 36.5116C60.2904 36.5116 54.4643 31.7635 51.1111 27.4958C50.5615 26.7963 49.8683 25.7514 49.0129 24.462C46.4499 20.5987 42.4312 14.5409 36.458 9.00571Z" stroke="#363636" stroke-width="13"/>
</g>
<defs>
<filter id="filter0_d_129_214" x="0" y="0" width="142.5" height="52.5061" filterUnits="userSpaceOnUse" color-interpolation-filters="sRGB">
<feFlood flood-opacity="0" result="BackgroundImageFix"/>
<feColorMatrix in="SourceAlpha" type="matrix" values="0 0 0 0 0 0 0 0 0 0 0 0 0 0 0 0 0 0 127 0" result="hardAlpha"/>
<feOffset dy="4"/>
<feGaussianBlur stdDeviation="2"/>
<feComposite in2="hardAlpha" operator="out"/>
<feColorMatrix type="matrix" values="0 0 0 0 0 0 0 0 0 0 0 0 0 0 0 0 0 0 0.25 0"/>
<feBlend mode="normal" in2="BackgroundImageFix" result="effect1_dropShadow_129_214"/>
<feBlend mode="normal" in="SourceGraphic" in2="effect1_dropShadow_129_214" result="shape"/>
</filter>
</defs>
</svg>
