<svg width="40" height="40" viewBox="0 0 40 40" fill="none" xmlns="http://www.w3.org/2000/svg">
<path fill-rule="evenodd" clip-rule="evenodd" d="M6.0303 19.6667C6.0303 12.1355 12.1355 6.0303 19.6667 6.0303C27.1978 6.0303 33.303 12.1355 33.303 19.6667C33.303 27.1978 27.1978 33.303 19.6667 33.303C12.1355 33.303 6.0303 27.1978 6.0303 19.6667ZM19.6667 3C10.4619 3 3 10.4619 3 19.6667C3 28.8714 10.4619 36.3333 19.6667 36.3333C28.8714 36.3333 36.3333 28.8714 36.3333 19.6667C36.3333 10.4619 28.8714 3 19.6667 3ZM27.5562 16.1926C28.1479 15.6009 28.1479 14.6415 27.5562 14.0498C26.9645 13.4581 26.0052 13.4581 25.4135 14.0498L16.6364 22.827L13.1623 19.3529C12.5706 18.7612 11.6112 18.7612 11.0195 19.3529C10.4278 19.9446 10.4278 20.9039 11.0195 21.4956L15.565 26.0411C16.1567 26.6328 17.116 26.6328 17.7077 26.0411L27.5562 16.1926Z" fill="#CACACA"/>
</svg>
