<svg width="24" height="24" viewBox="0 0 24 24" fill="none" xmlns="http://www.w3.org/2000/svg">
<path fill-rule="evenodd" clip-rule="evenodd" d="M6 1C6.55228 1 7 1.44772 7 2H20C20.3466 2 20.6684 2.17945 20.8507 2.47427C21.0329 2.76909 21.0494 3.13723 20.8944 3.44721L19.118 7L20.8944 10.5528C21.0494 10.8628 21.0329 11.2309 20.8507 11.5257C20.6684 11.8205 20.3466 12 20 12H7V21H8C8.55228 21 9 21.4477 9 22C9 22.5523 8.55228 23 8 23H4C3.44772 23 3 22.5523 3 22C3 21.4477 3.44772 21 4 21H5V2C5 1.44772 5.44772 1 6 1ZM7 10H18.382L17.1056 7.44721C16.9648 7.16569 16.9648 6.83431 17.1056 6.55279L18.382 4H7V10Z" fill="#1D1B20"/>
</svg>
