<svg width="38" height="38" viewBox="0 0 38 38" fill="none" xmlns="http://www.w3.org/2000/svg">
<path fill-rule="evenodd" clip-rule="evenodd" d="M3.5625 6.13542C3.5625 4.71443 4.71443 3.5625 6.13542 3.5625H13.8542C15.2751 3.5625 16.4271 4.71443 16.4271 6.13542V13.8542C16.4271 15.2751 15.2751 16.4271 13.8542 16.4271H6.13542C4.71443 16.4271 3.5625 15.2751 3.5625 13.8542V6.13542ZM6.77865 13.2109V6.77865H13.2109V13.2109H6.77865Z" fill="#CACACA"/>
<path fill-rule="evenodd" clip-rule="evenodd" d="M21.5729 6.13542C21.5729 4.71443 22.7249 3.5625 24.1458 3.5625H31.8646C33.2856 3.5625 34.4375 4.71443 34.4375 6.13542V13.8542C34.4375 15.2751 33.2856 16.4271 31.8646 16.4271H24.1458C22.7249 16.4271 21.5729 15.2751 21.5729 13.8542V6.13542ZM24.7891 13.2109V6.77865H31.2214V13.2109H24.7891Z" fill="#CACACA"/>
<path fill-rule="evenodd" clip-rule="evenodd" d="M24.1458 21.5729C22.7249 21.5729 21.5729 22.7249 21.5729 24.1458V31.8646C21.5729 33.2856 22.7249 34.4375 24.1458 34.4375H31.8646C33.2856 34.4375 34.4375 33.2856 34.4375 31.8646V24.1458C34.4375 22.7249 33.2856 21.5729 31.8646 21.5729H24.1458ZM24.7891 24.7891V31.2214H31.2214V24.7891H24.7891Z" fill="#CACACA"/>
<path fill-rule="evenodd" clip-rule="evenodd" d="M3.5625 24.1458C3.5625 22.7249 4.71443 21.5729 6.13542 21.5729H13.8542C15.2751 21.5729 16.4271 22.7249 16.4271 24.1458V31.8646C16.4271 33.2856 15.2751 34.4375 13.8542 34.4375H6.13542C4.71443 34.4375 3.5625 33.2856 3.5625 31.8646V24.1458ZM6.77865 31.2214V24.7891H13.2109V31.2214H6.77865Z" fill="#CACACA"/>
</svg>
