<svg width="38" height="38" viewBox="0 0 38 38" fill="none" xmlns="http://www.w3.org/2000/svg">
<g filter="url(#filter0_d_131_193)">
<rect width="30" height="30" transform="translate(4)" fill="#424141"/>
<path fill-rule="evenodd" clip-rule="evenodd" d="M6.57812 7.5C6.57812 6.85279 7.10279 6.32812 7.75 6.32812H30.25C30.8972 6.32812 31.4219 6.85279 31.4219 7.5C31.4219 8.14721 30.8972 8.67188 30.25 8.67188H7.75C7.10279 8.67188 6.57812 8.14721 6.57812 7.5Z" fill="#D1D0D0"/>
<path fill-rule="evenodd" clip-rule="evenodd" d="M6.57812 15C6.57812 14.3528 7.10279 13.8281 7.75 13.8281H30.25C30.8972 13.8281 31.4219 14.3528 31.4219 15C31.4219 15.6472 30.8972 16.1719 30.25 16.1719H7.75C7.10279 16.1719 6.57812 15.6472 6.57812 15Z" fill="#D1D0D0"/>
<path fill-rule="evenodd" clip-rule="evenodd" d="M6.57812 22.5C6.57812 21.8528 7.10279 21.3281 7.75 21.3281H30.25C30.8972 21.3281 31.4219 21.8528 31.4219 22.5C31.4219 23.1472 30.8972 23.6719 30.25 23.6719H7.75C7.10279 23.6719 6.57812 23.1472 6.57812 22.5Z" fill="#D1D0D0"/>
</g>
<defs>
<filter id="filter0_d_131_193" x="0" y="0" width="38" height="38" filterUnits="userSpaceOnUse" color-interpolation-filters="sRGB">
<feFlood flood-opacity="0" result="BackgroundImageFix"/>
<feColorMatrix in="SourceAlpha" type="matrix" values="0 0 0 0 0 0 0 0 0 0 0 0 0 0 0 0 0 0 127 0" result="hardAlpha"/>
<feOffset dy="4"/>
<feGaussianBlur stdDeviation="2"/>
<feComposite in2="hardAlpha" operator="out"/>
<feColorMatrix type="matrix" values="0 0 0 0 0 0 0 0 0 0 0 0 0 0 0 0 0 0 0.25 0"/>
<feBlend mode="normal" in2="BackgroundImageFix" result="effect1_dropShadow_131_193"/>
<feBlend mode="normal" in="SourceGraphic" in2="effect1_dropShadow_131_193" result="shape"/>
</filter>
</defs>
</svg>
