<svg width="12" height="12" viewBox="0 0 12 12" fill="none" xmlns="http://www.w3.org/2000/svg">
<path fill-rule="evenodd" clip-rule="evenodd" d="M5.5 11C5.5 11.2761 5.72385 11.5 6 11.5C6.27614 11.5 6.5 11.2761 6.5 11L6.50003 6.5H11C11.2761 6.5 11.5 6.27614 11.5 6C11.5 5.72386 11.2761 5.5 11 5.5H6.50003L6.50006 1C6.50006 0.723862 6.27621 0.500002 6.00006 0.5C5.72392 0.5 5.50006 0.723856 5.50006 0.999998L5.50003 5.5H1C0.723858 5.5 0.5 5.72386 0.5 6C0.5 6.27614 0.723858 6.5 1 6.5H5.50003L5.5 11Z" fill="#31111D"/>
</svg>
