<svg width="35" height="35" viewBox="0 0 35 35" fill="none" xmlns="http://www.w3.org/2000/svg">
<path fill-rule="evenodd" clip-rule="evenodd" d="M16.0417 6.56254C16.0417 3.74359 18.327 1.45837 21.1459 1.45837C23.9648 1.45837 26.2501 3.74359 26.2501 6.56254C26.2501 9.38148 23.9648 11.6667 21.1459 11.6667C18.3269 11.6667 16.0417 9.38148 16.0417 6.56254ZM21.1459 4.37504C19.9378 4.37504 18.9584 5.35442 18.9584 6.56254C18.9584 7.77065 19.9378 8.75004 21.1459 8.75004C22.354 8.75004 23.3334 7.77065 23.3334 6.56254C23.3334 5.35442 22.354 4.37504 21.1459 4.37504Z" fill="#CACACA"/>
<path d="M13.8542 33.5417C15.0624 33.5417 16.0417 32.5624 16.0417 31.3542C16.0417 30.1461 15.0624 29.1667 13.8542 29.1667C12.6461 29.1667 11.6667 30.1461 11.6667 31.3542C11.6667 32.5624 12.6461 33.5417 13.8542 33.5417Z" fill="#CACACA"/>
<path d="M18.4345 12.4843C20.0633 13.0894 21.6408 13.8355 23.1486 14.7184L25.4775 16.0315C25.4848 16.0356 25.4999 16.0411 25.5209 16.0411H30.6251C31.4305 16.0411 32.0834 16.694 32.0834 17.4995C32.0834 18.3049 31.4305 18.9578 30.6251 18.9578H25.5209C25.0171 18.9578 24.507 18.8321 24.0476 18.5736L21.7056 17.2531L21.6846 17.241C20.6387 16.6281 19.5552 16.0878 18.4415 15.622L16.4378 19.323L20.8268 22.9375C21.293 23.3053 21.5984 23.7864 21.7707 24.2767C21.7779 24.2972 21.7847 24.3179 21.791 24.3387L24.0004 31.6596C24.2331 32.4306 23.7966 33.2444 23.0256 33.4771C22.2545 33.7098 21.4408 33.2733 21.2081 32.5023L19.0125 25.2271L19.0106 25.223L19.0078 25.2176L18.9865 25.2004L14.8599 21.802L11.7729 26.0979C10.9859 27.2327 9.51225 27.6631 8.23842 27.1289L8.23586 27.1278L2.35618 24.6798C1.61264 24.3702 1.26084 23.5165 1.57042 22.7729C1.88 22.0294 2.73372 21.6776 3.47726 21.9872L9.36164 24.4372L9.36633 24.4391C9.36909 24.4403 9.37344 24.4397 9.37632 24.4355L9.39598 24.4075L13.3394 18.9197L15.6606 14.6324C14.6921 14.3457 13.7067 14.1122 12.7087 13.9331L12.7071 13.9328L10.3641 13.518L10.3589 13.5192L10.3575 13.5197C10.3457 13.5262 10.3333 13.5328 10.3213 13.539L5.77133 15.8796C5.05512 16.248 4.17585 15.9661 3.80741 15.2499C3.43898 14.5337 3.72091 13.6544 4.43711 13.286L8.97222 10.953C9.54624 10.6434 10.2188 10.5301 10.872 10.6459L13.2222 11.062C14.8877 11.3608 16.5226 11.7968 18.1101 12.3659C18.2203 12.3919 18.3292 12.4311 18.4345 12.4843Z" fill="#CACACA"/>
</svg>
