<svg width="24" height="24" viewBox="0 0 24 24" fill="none" xmlns="http://www.w3.org/2000/svg">
<path d="M11.5078 13.0015C11.6036 13.002 11.6967 13.0027 11.7872 13.0036L12.3005 13.0117L12.7583 13.0257L13.1667 13.0468C14.1309 13.1093 14.689 13.2489 15.2699 13.5449C16.2108 14.0243 16.9757 14.7892 17.4551 15.7301L17.5039 15.8281L17.5928 16.0215L17.6705 16.2155C17.6825 16.2482 17.6942 16.2811 17.7054 16.3143L17.7678 16.5185C17.7774 16.5535 17.7866 16.589 17.7954 16.6251L17.8441 16.8507C17.8516 16.8899 17.8586 16.9299 17.8654 16.9709L17.902 17.229L17.9315 17.5151L17.9546 17.8342L17.9721 18.1911L17.9892 18.8085L17.999 19.8109L18 21C18 21.5523 17.5523 22 17 22H2C1.44759 22 0.999829 21.5521 1 20.9997L1.00038 19.7877L1.0036 19.2128L1.01165 18.6995L1.02567 18.2417L1.04677 17.8333C1.10933 16.8691 1.24894 16.311 1.54497 15.7301C2.02433 14.7892 2.78924 14.0243 3.73008 13.5449C4.34979 13.2292 4.94341 13.0914 6.0317 13.0353L6.46401 13.0178L6.9488 13.007L7.49218 13.0015H11.5078ZM20.2699 13.5449C21.2107 14.0243 21.9756 14.7892 22.455 15.7301L22.5497 15.9251C22.5645 15.9573 22.5788 15.9894 22.5927 16.0215L22.6704 16.2155C22.6825 16.2482 22.6941 16.2811 22.7053 16.3143L22.7677 16.5185C22.7773 16.5535 22.7865 16.589 22.7954 16.6251L22.8441 16.8507C22.8589 16.929 22.8724 17.0108 22.8846 17.0968L22.9176 17.3683L22.9438 17.6702L22.972 18.1911L22.9892 18.8085L22.9977 19.5392L23 21C23 21.5523 22.5522 22 22 22C21.4871 22 21.0644 21.614 21.0067 21.1166L21 21L20.9991 19.8726L20.9901 18.918L20.9751 18.3503L20.9602 18.0327L20.9409 17.7575L20.9166 17.5194C20.9121 17.4825 20.9074 17.447 20.9025 17.4126L20.8699 17.2204C20.8521 17.1307 20.832 17.05 20.8093 16.9753L20.7603 16.833L20.7041 16.7014C20.694 16.6801 20.6837 16.659 20.673 16.638C20.4173 16.1363 20.0263 15.7179 19.5461 15.4291L19.3619 15.327C18.8698 15.0762 18.6742 14.474 18.9249 13.982C19.1756 13.4899 19.7778 13.2942 20.2699 13.5449ZM11.4733 15.0013H7.52843L6.83083 15.0096L6.2575 15.0276L5.93561 15.0458L5.6559 15.0698L5.41315 15.0999L5.20213 15.1368C5.07086 15.1637 4.95727 15.1956 4.85439 15.233L4.70722 15.2934L4.63804 15.327C4.07356 15.6146 3.61461 16.0735 3.32698 16.638C3.30387 16.6834 3.28229 16.7301 3.26215 16.7791L3.20598 16.9337C3.17998 17.0152 3.15702 17.1037 3.13679 17.2021L3.09991 17.413L3.06978 17.6557L3.04585 17.9353L3.02041 18.4353L3.00587 19.0476L3 20H15.999L15.996 19.3632L15.9901 18.9152L15.975 18.3464L15.96 18.0282L15.9406 17.7528L15.9161 17.5146L15.8862 17.3084L15.8502 17.1288C15.8437 17.1008 15.837 17.0737 15.8299 17.0473L15.7841 16.8977L15.7311 16.7614L15.673 16.638C15.3854 16.0736 14.9264 15.6146 14.362 15.327C14.3166 15.3039 14.2699 15.2823 14.2209 15.2621L14.0664 15.206C13.9849 15.18 13.8964 15.157 13.7979 15.1368L13.587 15.0999L13.3443 15.0698L13.0648 15.0458L12.5649 15.0204L11.9526 15.0059L11.4733 15.0013ZM9.5 2C11.9853 2 14 4.01472 14 6.5C14 8.98528 11.9853 11 9.5 11C7.01472 11 5 8.98528 5 6.5C5 4.01472 7.01472 2 9.5 2ZM16.82 2.64348C18.1614 3.4518 19 4.904 19 6.5C19 8.096 18.1614 9.54819 16.82 10.3565C16.3469 10.6416 15.7324 10.4892 15.4473 10.0161C15.1623 9.54307 15.3147 8.92852 15.7877 8.64348C16.5347 8.1934 17 7.38752 17 6.5C17 5.61248 16.5347 4.8066 15.7877 4.35652C15.3147 4.07148 15.1623 3.45693 15.4473 2.98389C15.7324 2.51084 16.3469 2.35844 16.82 2.64348ZM9.5 4C8.11929 4 7 5.11929 7 6.5C7 7.88072 8.11929 9 9.5 9C10.8807 9 12 7.88072 12 6.5C12 5.11929 10.8807 4 9.5 4Z" fill="#FFD9E3"/>
</svg>
